<svg width="24" height="24" viewBox="0 0 24 24" fill="none" xmlns="http://www.w3.org/2000/svg">
<g clip-path="url(#clip0_4_2)">
<path d="M14.5 12C14.5 11.0167 13.9333 10.1722 13.1111 9.76111V10.9889L14.4722 12.35C14.4889 12.2389 14.5 12.1222 14.5 12V12ZM15.8889 12C15.8889 12.5222 15.7778 13.0111 15.5889 13.4667L16.4278 14.3056C16.7944 13.6167 17 12.8333 17 12C17 9.62222 15.3389 7.63333 13.1111 7.12778V8.27222C14.7167 8.75 15.8889 10.2389 15.8889 12ZM7.70556 7L7 7.70556L9.62778 10.3333H7V13.6667H9.22222L12 16.4444V12.7056L14.3611 15.0667C13.9889 15.3556 13.5722 15.5833 13.1111 15.7222V16.8667C13.8778 16.6944 14.5722 16.3389 15.1611 15.8611L16.2944 17L17 16.2944L12 11.2944L7.70556 7ZM12 7.55556L10.8389 8.71667L12 9.87778V7.55556Z" fill="#E6CAAB"/>
<path d="M11.2731 0.983965C5.18911 1.38542 0.582504 6.64292 0.983962 12.7269C1.38542 18.8109 6.64292 23.4175 12.7269 23.0161C14.9349 22.8704 16.9475 22.0856 18.5973 20.8537L19.1502 21.6389C17.3607 22.9688 15.1798 23.8163 12.7901 23.974C6.17708 24.4103 0.462413 19.4032 0.026045 12.7901C-0.410323 6.17709 4.59686 0.462416 11.2099 0.0260485C17.8229 -0.410319 23.5376 4.59686 23.974 11.2099C24.1316 13.5994 23.5782 15.873 22.4947 17.822L21.6556 17.3555C22.6521 15.5631 23.1612 13.4728 23.016 11.2731C22.6146 5.18911 17.3571 0.582507 11.2731 0.983965Z" fill="#E6CAAB"/>
<circle cx="20.5" cy="19.5" r="1.5" fill="#E6CAAB"/>
</g>
<defs>
<clipPath id="clip0_4_2">
<rect width="24" height="24" fill="white"/>
</clipPath>
</defs>
</svg>
