<svg width="24" height="24" viewBox="0 0 24 24" fill="none" xmlns="http://www.w3.org/2000/svg">
<g clip-path="url(#clip0_4_10)">
<path d="M11.2731 0.983965C5.18911 1.38542 0.582504 6.64292 0.983962 12.7269C1.38542 18.8109 6.64292 23.4175 12.7269 23.0161C14.9349 22.8704 16.9475 22.0856 18.5973 20.8537L19.1502 21.6389C17.3607 22.9688 15.1798 23.8163 12.7901 23.974C6.17708 24.4103 0.462413 19.4032 0.026045 12.7901C-0.410323 6.17709 4.59686 0.462416 11.2099 0.0260485C17.8229 -0.410319 23.5376 4.59686 23.974 11.2099C24.1316 13.5994 23.5782 15.873 22.4947 17.822L21.6556 17.3555C22.6521 15.5631 23.1612 13.4728 23.016 11.2731C22.6146 5.18911 17.3571 0.582507 11.2731 0.983965Z" fill="#E6CAAB"/>
<circle cx="20.5" cy="19.5" r="1.5" fill="#E6CAAB"/>
<path d="M7 10.2896V13.7104H9.22222L12 16.561V7.439L9.22222 10.2896H7ZM14.5 12C14.5 10.9909 13.9333 10.1243 13.1111 9.70239V14.2919C13.9333 13.8757 14.5 13.0091 14.5 12ZM13.1111 7V8.17446C14.7167 8.66477 15.8889 10.1927 15.8889 12C15.8889 13.8073 14.7167 15.3352 13.1111 15.8255V17C15.3389 16.4812 17 14.4401 17 12C17 9.55986 15.3389 7.51881 13.1111 7V7Z" fill="#E6CAAB"/>
</g>
<defs>
<clipPath id="clip0_4_10">
<rect width="24" height="24" fill="white"/>
</clipPath>
</defs>
</svg>
